# xmcd
#
# Track frame offsets: 
#        150
#        14360
#        40507
#        58635
#        75944
#        96970
#        115286
#        136893
#        166835
#        190184
#        215359
#        249223
#        283066
#        299076
#
# Disc length: 4199 seconds
#
# Revision: 6
# Processed by: cddbd v1.5.2PL0 Copyright (c) Steve Scherf et al.
# Submitted via: ExactAudioCopy v1.3
#
DISCID=bd10650e
DTITLE=Wynonna Judd - Her Story: Scenes from a Lifetime: Motherhood and 
DTITLE=Music [Disc 2 of 2]
DYEAR=2005
DGENRE=Country
TTITLE0=Shining Star [Live]
TTITLE1=To Be Loved by You [Live]
TTITLE2=Help Me [Live]
TTITLE3=Don't You Throw That Mojo on Me [Live]
TTITLE4=I'm the Only One [Live]
TTITLE5=Sometimes I Feel Like Elvis [Live]
TTITLE6=Burnin' Love [Live]
TTITLE7=People Get Ready [Live]
TTITLE8=I Can Only Imagine [Live]
TTITLE9=What the World Needs [Live]
TTITLE10=The Best [Live]
TTITLE11=Peace in This House [Live]
TTITLE12=When I Reach the Place I'm Going [Live]
TTITLE13=Attitude [Bonus Track]
EXTD=Location:  - UPC: 5055011819825 - Catalogue number: CURCD198 - Label
EXTD=: Curb Records - ASIN: B000BHAO08 - Release Date: 2005 09 27 - Disco
EXTD=gs:  - MUSICBRAINZ_ALBUMID: b8d4bfd8-9945-441a-bdad-02e05e8dd0a2 - 
EXTD=AMG:  - Recorded Live at the Grand Ole Opry House, February 1
EXTT0=
EXTT1=
EXTT2=
EXTT3=
EXTT4=
EXTT5=
EXTT6=
EXTT7=
EXTT8=
EXTT9=
EXTT10=
EXTT11=
EXTT12=
EXTT13=
PLAYORDER=
